[Header]
FileType HTR
DataType HTRS
FileVersion 1
NumSegments 64
NumFrames 4
DataFrameRate 30
EulerRotationOrder ZYX
CalibrationUnits mm
RotationUnits Degrees
GlobalAxisofGravity Y
BoneLengthAxis Y
ScaleFactor 1.0
[SegmentNames&Hierarchy]
Hips	GLOBAL
Spine	Hips
Spine1	Spine
Spine2	Spine1
Neck	Spine2
Head	Neck
LeftEye	Head
RightEye	Head
LeftShoulder	Spine2
LeftArm	LeftShoulder
LeftForeArm	LeftArm
LeftHand	LeftForeArm
LeftHandThumb1	LeftHand
LeftHandThumb2	LeftHandThumb1
LeftHandThumb3	LeftHandThumb2
LeftHandThumb4	LeftHandThumb3
LeftHandIndex1	LeftHand
LeftHandIndex2	LeftHandIndex1
LeftHandIndex3	LeftHandIndex2
LeftHandIndex4	LeftHandIndex3
LeftHandMiddle1	LeftHand
LeftHandMiddle2	LeftHandMiddle1
LeftHandMiddle3	LeftHandMiddle2
LeftHandMiddle4	LeftHandMiddle3
LeftHandRing1	LeftHand
LeftHandRing2	LeftHandRing1
LeftHandRing3	LeftHandRing2
LeftHandRing4	LeftHandRing3
LeftHandPinky1	LeftHand
LeftHandPinky2	LeftHandPinky1
LeftHandPinky3	LeftHandPinky2
LeftHandPinky4	LeftHandPinky3
RightShoulder	Spine2
RightArm	RightShoulder
RightForeArm	RightArm
RightHand	RightForeArm
RightHandPinky1	RightHand
RightHandPinky2	RightHandPinky1
RightHandPinky3	RightHandPinky2
RightHandPinky4	RightHandPinky3
RightHandRing1	RightHand
RightHandRing2	RightHandRing1
RightHandRing3	RightHandRing2
RightHandRing4	RightHandRing3
RightHandMiddle1	RightHand
RightHandMiddle2	RightHandMiddle1
RightHandMiddle3	RightHandMiddle2
RightHandMiddle4	RightHandMiddle3
RightHandIndex1	RightHand
RightHandIndex2	RightHandIndex1
RightHandIndex3	RightHandIndex2
RightHandIndex4	RightHandIndex3
RightHandThumb1	RightHand
RightHandThumb2	RightHandThumb1
RightHandThumb3	RightHandThumb2
RightHandThumb4	RightHandThumb3
LeftUpLeg	Hips
LeftLeg	LeftUpLeg
LeftFoot	LeftLeg
LeftToeBase	LeftFoot
RightUpLeg	Hips
RightLeg	RightUpLeg
RightFoot	RightLeg
RightToeBase	RightFoot
[BasePosition]
Hips	0	0	0	0	0	0	1
Spine	0	0	0	0	0	0	1
Spine1	0	0	0	0	0	0	1
Spine2	0	0	0	0	0	0	1
Neck	0	0	0	0	0	0	1
Head	0	0	0	0	0	0	1
LeftEye	0	0	0	0	0	0	1
RightEye	0	0	0	0	0	0	1
LeftShoulder	0	0	0	0	0	0	1
LeftArm	0	0	0	0	0	0	1
LeftForeArm	0	0	0	0	0	0	1
LeftHand	0	0	0	0	0	0	1
LeftHandThumb1	0	0	0	0	0	0	1
LeftHandThumb2	0	0	0	0	0	0	1
LeftHandThumb3	0	0	0	0	0	0	1
LeftHandThumb4	0	0	0	0	0	0	1
LeftHandIndex1	0	0	0	0	0	0	1
LeftHandIndex2	0	0	0	0	0	0	1
LeftHandIndex3	0	0	0	0	0	0	1
LeftHandIndex4	0	0	0	0	0	0	1
LeftHandMiddle1	0	0	0	0	0	0	1
LeftHandMiddle2	0	0	0	0	0	0	1
LeftHandMiddle3	0	0	0	0	0	0	1
LeftHandMiddle4	0	0	0	0	0	0	1
LeftHandRing1	0	0	0	0	0	0	1
LeftHandRing2	0	0	0	0	0	0	1
LeftHandRing3	0	0	0	0	0	0	1
LeftHandRing4	0	0	0	0	0	0	1
LeftHandPinky1	0	0	0	0	0	0	1
LeftHandPinky2	0	0	0	0	0	0	1
LeftHandPinky3	0	0	0	0	0	0	1
LeftHandPinky4	0	0	0	0	0	0	1
RightShoulder	0	0	0	0	0	0	1
RightArm	0	0	0	0	0	0	1
RightForeArm	0	0	0	0	0	0	1
RightHand	0	0	0	0	0	0	1
RightHandPinky1	0	0	0	0	0	0	1
RightHandPinky2	0	0	0	0	0	0	1
RightHandPinky3	0	0	0	0	0	0	1
RightHandPinky4	0	0	0	0	0	0	1
RightHandRing1	0	0	0	0	0	0	1
RightHandRing2	0	0	0	0	0	0	1
RightHandRing3	0	0	0	0	0	0	1
RightHandRing4	0	0	0	0	0	0	1
RightHandMiddle1	0	0	0	0	0	0	1
RightHandMiddle2	0	0	0	0	0	0	1
RightHandMiddle3	0	0	0	0	0	0	1
RightHandMiddle4	0	0	0	0	0	0	1
RightHandIndex1	0	0	0	0	0	0	1
RightHandIndex2	0	0	0	0	0	0	1
RightHandIndex3	0	0	0	0	0	0	1
RightHandIndex4	0	0	0	0	0	0	1
RightHandThumb1	0	0	0	0	0	0	1
RightHandThumb2	0	0	0	0	0	0	1
RightHandThumb3	0	0	0	0	0	0	1
RightHandThumb4	0	0	0	0	0	0	1
LeftUpLeg	0	0	0	0	0	0	1
LeftLeg	0	0	0	0	0	0	1
LeftFoot	0	0	0	0	0	0	1
LeftToeBase	0	0	0	0	0	0	1
RightUpLeg	0	0	0	0	0	0	1
RightLeg	0	0	0	0	0	0	1
RightFoot	0	0	0	0	0	0	1
RightToeBase	0	0	0	0	0	0	1
[Hips]
16	1.478725672	1034.189209	15.44815922	-3.252673149	-5.893143177	-3.478708506	1.0
17	1.410376906	1034.176147	15.51095772	-3.238888025	-5.916209221	-3.49192524	1.0
18	1.327556491	1034.150146	15.57304573	-3.218166113	-5.928802013	-3.50364542	1.0
19	1.24370563	1034.124512	15.64592552	-3.193940639	-5.934038162	-3.513302326	1.0
[Spine]
16	0	101.8159943	1.315000057	3.289181471	1.201821089	2.735884905	1.0
17	0	101.8159943	1.315000057	3.304811478	1.207416534	2.734479904	1.0
18	0	101.8159943	1.315000057	3.317074299	1.217634559	2.733749151	1.0
19	0	101.8159943	1.315000057	3.327046871	1.230488539	2.732053757	1.0
[Spine1]
16	0	100.8349991	-10.00800037	1.138286233	0.2329625636	1.529384851	1.0
17	0	100.8349991	-10.00800037	1.143584728	0.2352052331	1.528096437	1.0
18	0	100.8349991	-10.00800037	1.147368431	0.2392913103	1.527275562	1.0
19	0	100.8349991	-10.00800037	1.150200486	0.244445473	1.526453495	1.0
[Spine2]
16	0	91	-13.73399925	1.113072038	0.2556012869	1.533155799	1.0
17	0	91	-13.73399925	1.11837256	0.2578359246	1.531848431	1.0
18	0	91	-13.73399925	1.122157216	0.2619067132	1.530997515	1.0
19	0	91	-13.73399925	1.124988437	0.2670490742	1.530140877	1.0
[Neck]
16	0	166.7169952	-25.16200066	5.515035152	-0.1352012753	0.5047339797	1.0
17	0	166.7169952	-25.16200066	5.513934612	-0.1428217888	0.5124856234	1.0
18	0	166.7169952	-25.16200066	5.51943922	-0.1505062878	0.5161414146	1.0
19	0	166.7169952	-25.16200066	5.526166439	-0.155592829	0.5204632878	1.0
[Head]
16	0	96.17900085	16.84999847	-7.642395973	1.239102125	-0.2198698074	1.0
17	0	96.17900085	16.84999847	-7.670555592	1.209094048	-0.1967389733	1.0
18	0	96.17900085	16.84999847	-7.684307098	1.176792979	-0.176402688	1.0
19	0	96.17900085	16.84999847	-7.677521706	1.164254069	-0.1704854816	1.0
[LeftEye]
16	30.6760006	64.09500122	92.83599854	0	0	0	1.0
17	30.6760006	64.09500122	92.83599854	0	0	0	1.0
18	30.6760006	64.09500122	92.83599854	0	0	0	1.0
19	30.6760006	64.09500122	92.83599854	0	0	0	1.0
[RightEye]
16	-30.6760006	64.09500122	92.83499908	0	0	0	1.0
17	-30.6760006	64.09500122	92.83499908	0	0	0	1.0
18	-30.6760006	64.09500122	92.83499908	0	0	0	1.0
19	-30.6760006	64.09500122	92.83499908	0	0	0	1.0
[LeftShoulder]
16	45.70400238	109.4599991	-26.28000069	4.867110729	-16.85104561	-12.98718452	1.0
17	45.70400238	109.4599991	-26.28000069	4.865915298	-16.84479713	-12.98290062	1.0
18	45.70400238	109.4599991	-26.28000069	4.866543293	-16.83702087	-12.98882961	1.0
19	45.70400238	109.4599991	-26.28000069	4.868560791	-16.8280735	-13.0025692	1.0
[LeftArm]
16	105.923996	-5.24600029	-22.32099915	20.43189621	-2.828045845	-71.16786957	1.0
17	105.923996	-5.24600029	-22.32099915	20.43035889	-2.8389678	-71.16040802	1.0
18	105.923996	-5.24600029	-22.32099915	20.429636	-2.863014221	-71.13628387	1.0
19	105.923996	-5.24600029	-22.32099915	20.42394638	-2.892599821	-71.10201263	1.0
[LeftForeArm]
16	278.414978	-0.0009999999311	0	-1.12721209e-05	-1.366892815	-0.0001929225837	1.0
17	278.414978	-0.0009999999311	0	5.163769401e-06	-1.370645285	-0.0001887830585	1.0
18	278.414978	-0.0009999999311	0	7.926852959e-06	-1.377724171	-0.0001978382352	1.0
19	278.414978	-0.0009999999311	0	6.129879694e-06	-1.389317036	-0.0001952797029	1.0
[LeftHand]
16	283.2879944	0	0	-32.80719757	-4.31385231	-4.633197784	1.0
17	283.2879944	0	0	-32.83332443	-4.329756737	-4.619448662	1.0
18	283.2879944	0	0	-32.8400383	-4.342377186	-4.620491982	1.0
19	283.2879944	0	0	-32.82819748	-4.347676754	-4.624068737	1.0
[LeftHandThumb1]
16	24.6609993	-15.75	26.8239994	-0.4889889657	2.201390743	4.818541527	1.0
17	24.6609993	-15.75	26.8239994	-0.4889889657	2.201390743	4.818541527	1.0
18	24.6609993	-15.75	26.8239994	-0.4889889657	2.201390743	4.818541527	1.0
19	24.6609993	-15.75	26.8239994	-0.4889889657	2.201390743	4.818541527	1.0
[LeftHandThumb2]
16	32.29800034	-18.64699936	18.64699936	19.88581276	19.96446037	23.26738167	1.0
17	32.29800034	-18.64699936	18.64699936	19.88581276	19.96446037	23.26738167	1.0
18	32.29800034	-18.64699936	18.64699936	19.88581276	19.96446037	23.26738167	1.0
19	32.29800034	-18.64699936	18.64699936	19.88581276	19.96446037	23.26738167	1.0
[LeftHandThumb3]
16	26.52600098	-15.31499958	15.31499958	-13.14535904	5.551738262	7.967928886	1.0
17	26.52600098	-15.31499958	15.31499958	-13.14535904	5.551738262	7.967928886	1.0
18	26.52600098	-15.31499958	15.31499958	-13.14535904	5.551738262	7.967928886	1.0
19	26.52600098	-15.31499958	15.31499958	-13.14535904	5.551738262	7.967928886	1.0
[LeftHandThumb4]
16	19.54599953	-11.28499985	11.28499985	0	0	0	1.0
17	19.54599953	-11.28499985	11.28499985	0	0	0	1.0
18	19.54599953	-11.28499985	11.28499985	0	0	0	1.0
19	19.54599953	-11.28499985	11.28499985	0	0	0	1.0
[LeftHandIndex1]
16	91.09299469	-5.170999527	22.60099792	0.1480516791	-0.9618676901	-7.594518185	1.0
17	91.09299469	-5.170999527	22.60099792	0.1480516791	-0.9618676901	-7.594518185	1.0
18	91.09299469	-5.170999527	22.60099792	0.1480516791	-0.9618676901	-7.594518185	1.0
19	91.09299469	-5.170999527	22.60099792	0.1480516791	-0.9618676901	-7.594518185	1.0
[LeftHandIndex2]
16	36.76399994	0	0	-0.2667043209	1.745171905	-17.37646866	1.0
17	36.76399994	0	0	-0.2667043209	1.745171905	-17.37646866	1.0
18	36.76399994	0	0	-0.2667043209	1.745171905	-17.37646866	1.0
19	36.76399994	0	0	-0.2667043209	1.745171905	-17.37646866	1.0
[LeftHandIndex3]
16	28.83100128	0	0	-0.05742863193	0.817338407	-8.038370132	1.0
17	28.83100128	0	0	-0.05742863193	0.817338407	-8.038370132	1.0
18	28.83100128	0	0	-0.05742863193	0.817338407	-8.038370132	1.0
19	28.83100128	0	0	-0.05742863193	0.817338407	-8.038370132	1.0
[LeftHandIndex4]
16	23.92700005	0	0	0	0	0	1.0
17	23.92700005	0	0	0	0	0	1.0
18	23.92700005	0	0	0	0	0	1.0
19	23.92700005	0	0	0	0	0	1.0
[LeftHandMiddle1]
16	95.33399963	0	0	-0.7942916155	2.538622379	-15.71737862	1.0
17	95.33399963	0	0	-0.7942916155	2.538622379	-15.71737862	1.0
18	95.33399963	0	0	-0.7942916155	2.538622379	-15.71737862	1.0
19	95.33399963	0	0	-0.7942916155	2.538622379	-15.71737862	1.0
[LeftHandMiddle2]
16	36.98199844	0	0	-0.267610997	1.748071074	-17.40625954	1.0
17	36.98199844	0	0	-0.267610997	1.748071074	-17.40625954	1.0
18	36.98199844	0	0	-0.267610997	1.748071074	-17.40625954	1.0
19	36.98199844	0	0	-0.267610997	1.748071074	-17.40625954	1.0
[LeftHandMiddle3]
16	29.50900078	0	0	-0.2992140949	1.84580946	-18.41413307	1.0
17	29.50900078	0	0	-0.2992140949	1.84580946	-18.41413307	1.0
18	29.50900078	0	0	-0.2992140949	1.84580946	-18.41413307	1.0
19	29.50900078	0	0	-0.2992140949	1.84580946	-18.41413307	1.0
[LeftHandMiddle4]
16	28.3390007	0	0	0	0	0	1.0
17	28.3390007	0	0	0	0	0	1.0
18	28.3390007	0	0	0	0	0	1.0
19	28.3390007	0	0	0	0	0	1.0
[LeftHandRing1]
16	91.04499817	-0.4390000105	-18.65100098	-1.184956431	3.436642885	-21.16632462	1.0
17	91.04499817	-0.4390000105	-18.65100098	-1.184956431	3.436642885	-21.16632462	1.0
18	91.04499817	-0.4390000105	-18.65100098	-1.184956431	3.436642885	-21.16632462	1.0
19	91.04499817	-0.4390000105	-18.65100098	-1.184956431	3.436642885	-21.16632462	1.0
[LeftHandRing2]
16	31.54000092	0	0	-0.3849357069	2.085560799	-20.91281319	1.0
17	31.54000092	0	0	-0.3849357069	2.085560799	-20.91281319	1.0
18	31.54000092	0	0	-0.3849357069	2.085560799	-20.91281319	1.0
19	31.54000092	0	0	-0.3849357069	2.085560799	-20.91281319	1.0
[LeftHandRing3]
16	29.37700081	0	0	-0.2818065584	1.792707562	-17.86576271	1.0
17	29.37700081	0	0	-0.2818065584	1.792707562	-17.86576271	1.0
18	29.37700081	0	0	-0.2818065584	1.792707562	-17.86576271	1.0
19	29.37700081	0	0	-0.2818065584	1.792707562	-17.86576271	1.0
[LeftHandRing4]
16	26.47500038	0	0	0	0	0	1.0
17	26.47500038	0	0	0	0	0	1.0
18	26.47500038	0	0	0	0	0	1.0
19	26.47500038	0	0	0	0	0	1.0
[LeftHandPinky1]
16	80.77799988	-4.887000084	-38.06099701	-1.708467126	5.355370045	-27.1653862	1.0
17	80.77799988	-4.887000084	-38.06099701	-1.708467126	5.355370045	-27.1653862	1.0
18	80.77799988	-4.887000084	-38.06099701	-1.708467126	5.355370045	-27.1653862	1.0
19	80.77799988	-4.887000084	-38.06099701	-1.708467126	5.355370045	-27.1653862	1.0
[LeftHandPinky2]
16	36	0	0	-0.2676221728	1.748113751	-17.40663528	1.0
17	36	0	0	-0.2676221728	1.748113751	-17.40663528	1.0
18	36	0	0	-0.2676221728	1.748113751	-17.40663528	1.0
19	36	0	0	-0.2676221728	1.748113751	-17.40663528	1.0
[LeftHandPinky3]
16	21.14200211	0	0	-0.2408525199	1.660349369	-16.50663185	1.0
17	21.14200211	0	0	-0.2408525199	1.660349369	-16.50663185	1.0
18	21.14200211	0	0	-0.2408525199	1.660349369	-16.50663185	1.0
19	21.14200211	0	0	-0.2408525199	1.660349369	-16.50663185	1.0
[LeftHandPinky4]
16	19.75699997	0	0	0	0	0	1.0
17	19.75699997	0	0	0	0	0	1.0
18	19.75699997	0	0	0	0	0	1.0
19	19.75699997	0	0	0	0	0	1.0
[RightShoulder]
16	-45.70000076	109.4620056	-26.28000069	5.14638567	14.37285042	15.37659645	1.0
17	-45.70000076	109.4620056	-26.28000069	5.149908543	14.38003445	15.3941164	1.0
18	-45.70000076	109.4620056	-26.28000069	5.152763844	14.38829613	15.40698338	1.0
19	-45.70000076	109.4620056	-26.28000069	5.155585766	14.39575005	15.42006779	1.0
[RightArm]
16	-105.9280014	-5.248000145	-22.32099915	30.49697685	2.296740055	62.45709991	1.0
17	-105.9280014	-5.248000145	-22.32099915	30.49760818	2.287039757	62.45820618	1.0
18	-105.9280014	-5.248000145	-22.32099915	30.49232483	2.271425486	62.46531296	1.0
19	-105.9280014	-5.248000145	-22.32099915	30.47920609	2.25124526	62.47758102	1.0
[RightForeArm]
16	-278.414978	0	0	-5.731454166e-06	6.700177193	-6.500632935e-06	1.0
17	-278.414978	0	0	-6.58797353e-06	6.707014084	2.847672533e-07	1.0
18	-278.414978	0	0	-1.236644584e-05	6.71407938	-2.644621054e-05	1.0
19	-278.414978	0	0	-7.434656254e-06	6.719284058	-2.168025821e-05	1.0
[RightHand]
16	-283.2879944	0	0.0009999999311	-19.91926193	1.874206185	6.585584164	1.0
17	-283.2879944	0	0.0009999999311	-19.925457	1.883859873	6.585141182	1.0
18	-283.2879944	0	0.0009999999311	-19.93767738	1.887640834	6.587413311	1.0
19	-283.2879944	0	0.0009999999311	-19.95231438	1.886375904	6.595403671	1.0
[RightHandPinky1]
16	-80.76699829	-4.885000229	-38.06000137	-1.507175922	-4.696118355	26.50587463	1.0
17	-80.76699829	-4.885000229	-38.06000137	-1.507175922	-4.696118355	26.50587463	1.0
18	-80.76699829	-4.885000229	-38.06000137	-1.507175922	-4.696118355	26.50587463	1.0
19	-80.76699829	-4.885000229	-38.06000137	-1.507175922	-4.696118355	26.50587463	1.0
[RightHandPinky2]
16	-36	0	0.0009999999311	-0.2127676606	-1.388874292	17.43785858	1.0
17	-36	0	0.0009999999311	-0.2127676606	-1.388874292	17.43785858	1.0
18	-36	0	0.0009999999311	-0.2127676606	-1.388874292	17.43785858	1.0
19	-36	0	0.0009999999311	-0.2127676606	-1.388874292	17.43785858	1.0
[RightHandPinky3]
16	-21.14200211	0	0	-0.1919144988	-1.32059598	16.53641129	1.0
17	-21.14200211	0	0	-0.1919144988	-1.32059598	16.53641129	1.0
18	-21.14200211	0	0	-0.1919144988	-1.32059598	16.53641129	1.0
19	-21.14200211	0	0	-0.1919144988	-1.32059598	16.53641129	1.0
[RightHandPinky4]
16	-19.75699997	0	0	0	0	0	1.0
17	-19.75699997	0	0	0	0	0	1.0
18	-19.75699997	0	0	0	0	0	1.0
19	-19.75699997	0	0	0	0	0	1.0
[RightHandRing1]
16	-91.03599548	-0.4390000105	-18.65100098	-1.045235753	-2.883111477	20.47788429	1.0
17	-91.03599548	-0.4390000105	-18.65100098	-1.045235753	-2.883111477	20.47788429	1.0
18	-91.03599548	-0.4390000105	-18.65100098	-1.045235753	-2.883111477	20.47788429	1.0
19	-91.03599548	-0.4390000105	-18.65100098	-1.045235753	-2.883111477	20.47788429	1.0
[RightHandRing2]
16	-31.54000092	0	0	-0.3066971898	-1.658752441	20.94926834	1.0
17	-31.54000092	0	0	-0.3066971898	-1.658752441	20.94926834	1.0
18	-31.54000092	0	0	-0.3066971898	-1.658752441	20.94926834	1.0
19	-31.54000092	0	0	-0.3066971898	-1.658752441	20.94926834	1.0
[RightHandRing3]
16	-29.37700081	0	0	-0.2245407403	-1.425854325	17.89771652	1.0
17	-29.37700081	0	0	-0.2245407403	-1.425854325	17.89771652	1.0
18	-29.37700081	0	0	-0.2245407403	-1.425854325	17.89771652	1.0
19	-29.37700081	0	0	-0.2245407403	-1.425854325	17.89771652	1.0
[RightHandRing4]
16	-26.47500038	0	0	0	0	0	1.0
17	-26.47500038	0	0	0	0	0	1.0
18	-26.47500038	0	0	0	0	0	1.0
19	-26.47500038	0	0	0	0	0	1.0
[RightHandMiddle1]
16	-95.32500458	0	0	-0.7017197609	-2.087752104	15.0152874	1.0
17	-95.32500458	0	0	-0.7017197609	-2.087752104	15.0152874	1.0
18	-95.32500458	0	0	-0.7017197609	-2.087752104	15.0152874	1.0
19	-95.32500458	0	0	-0.7017197609	-2.087752104	15.0152874	1.0
[RightHandMiddle2]
16	-36.98199844	0	0	-0.213228479	-1.390354872	17.43750381	1.0
17	-36.98199844	0	0	-0.213228479	-1.390354872	17.43750381	1.0
18	-36.98199844	0	0	-0.213228479	-1.390354872	17.43750381	1.0
19	-36.98199844	0	0	-0.213228479	-1.390354872	17.43750381	1.0
[RightHandMiddle3]
16	-29.50900078	0	0	-0.2384106964	-1.470119596	18.44692802	1.0
17	-29.50900078	0	0	-0.2384106964	-1.470119596	18.44692802	1.0
18	-29.50900078	0	0	-0.2384106964	-1.470119596	18.44692802	1.0
19	-29.50900078	0	0	-0.2384106964	-1.470119596	18.44692802	1.0
[RightHandMiddle4]
16	-28.3390007	0	0.0009999999311	0	0	0	1.0
17	-28.3390007	0	0.0009999999311	0	0	0	1.0
18	-28.3390007	0	0.0009999999311	0	0	0	1.0
19	-28.3390007	0	0.0009999999311	0	0	0	1.0
[RightHandIndex1]
16	-91.08300018	-5.167999744	22.60099792	0.1884763837	1.25192976	6.825599194	1.0
17	-91.08300018	-5.167999744	22.60099792	0.1884763837	1.25192976	6.825599194	1.0
18	-91.08300018	-5.167999744	22.60099792	0.1884763837	1.25192976	6.825599194	1.0
19	-91.08300018	-5.167999744	22.60099792	0.1884763837	1.25192976	6.825599194	1.0
[RightHandIndex2]
16	-36.76399994	0	0	-0.2125098109	-1.388050556	17.40767097	1.0
17	-36.76399994	0	0	-0.2125098109	-1.388050556	17.40767097	1.0
18	-36.76399994	0	0	-0.2125098109	-1.388050556	17.40767097	1.0
19	-36.76399994	0	0	-0.2125098109	-1.388050556	17.40767097	1.0
[RightHandIndex3]
16	-28.83100128	0	0	-0.04576345533	-0.650116384	8.053516388	1.0
17	-28.83100128	0	0	-0.04576345533	-0.650116384	8.053516388	1.0
18	-28.83100128	0	0	-0.04576345533	-0.650116384	8.053516388	1.0
19	-28.83100128	0	0	-0.04576345533	-0.650116384	8.053516388	1.0
[RightHandIndex4]
16	-23.92700005	0	0	0	0	0	1.0
17	-23.92700005	0	0	0	0	0	1.0
18	-23.92700005	0	0	0	0	0	1.0
19	-23.92700005	0	0	0	0	0	1.0
[RightHandThumb1]
16	-24.64799881	-15.72700024	26.82600021	-1.658462524	-0.2891407609	-4.221328735	1.0
17	-24.64799881	-15.72700024	26.82600021	-1.658462524	-0.2891407609	-4.221328735	1.0
18	-24.64799881	-15.72700024	26.82600021	-1.658462524	-0.2891407609	-4.221328735	1.0
19	-24.64799881	-15.72700024	26.82600021	-1.658462524	-0.2891407609	-4.221328735	1.0
[RightHandThumb2]
16	-32.29800034	-18.64699936	18.64699936	22.25259209	-23.88967514	-24.282444	1.0
17	-32.29800034	-18.64699936	18.64699936	22.25259209	-23.88967514	-24.282444	1.0
18	-32.29800034	-18.64699936	18.64699936	22.25259209	-23.88967514	-24.282444	1.0
19	-32.29800034	-18.64699936	18.64699936	22.25259209	-23.88967514	-24.282444	1.0
[RightHandThumb3]
16	-26.52600098	-15.31399918	15.31399918	-14.47830296	-6.743862152	-11.36570263	1.0
17	-26.52600098	-15.31399918	15.31399918	-14.47830296	-6.743862152	-11.36570263	1.0
18	-26.52600098	-15.31399918	15.31399918	-14.47830296	-6.743862152	-11.36570263	1.0
19	-26.52600098	-15.31399918	15.31399918	-14.47830296	-6.743862152	-11.36570263	1.0
[RightHandThumb4]
16	-19.54599953	-11.28499985	11.28499985	0	0	0	1.0
17	-19.54599953	-11.28499985	11.28499985	0	0	0	1.0
18	-19.54599953	-11.28499985	11.28499985	0	0	0	1.0
19	-19.54599953	-11.28499985	11.28499985	0	0	0	1.0
[LeftUpLeg]
16	82.07800293	-67.51699829	-15.99599934	-8.331123352	16.29057312	7.847664356	1.0
17	82.07800293	-67.51699829	-15.99599934	-8.348442078	16.30925751	7.86716938	1.0
18	82.07800293	-67.51699829	-15.99599934	-8.379429817	16.32190514	7.881287575	1.0
19	82.07800293	-67.51699829	-15.99599934	-8.413612366	16.33190727	7.891179085	1.0
[LeftLeg]
16	0	-443.7049866	2.845999956	12.32511997	1.487688541	4.558406353	1.0
17	0	-443.7049866	2.845999956	12.35255909	1.488547683	4.557207584	1.0
18	0	-443.7049866	2.845999956	12.38531685	1.485256672	4.557731152	1.0
19	0	-443.7049866	2.845999956	12.4137888	1.480498552	4.557517529	1.0
[LeftFoot]
16	0	-444.2789917	-29.8219986	1.12992692	0.6720708609	-7.150844097	1.0
17	0	-444.2789917	-29.8219986	1.114805579	0.6717621684	-7.153272152	1.0
18	0	-444.2789917	-29.8219986	1.099970937	0.6715596914	-7.156682491	1.0
19	0	-444.2789917	-29.8219986	1.087270021	0.6713613868	-7.158789158	1.0
[LeftToeBase]
16	0	-87.28699493	107.1060028	-4.926207066	-5.758880889e-06	-5.207210165e-07	1.0
17	0	-87.28699493	107.1060028	-4.92998457	9.455184227e-06	2.894980753e-07	1.0
18	0	-87.28699493	107.1060028	-4.933199406	5.577738193e-06	-1.479599405e-06	1.0
19	0	-87.28699493	107.1060028	-4.933532715	4.591601737e-06	-1.064892558e-06	1.0
[RightUpLeg]
16	-82.07800293	-67.51699829	-15.99599934	0.08844608814	-10.38886833	3.49211812	1.0
17	-82.07800293	-67.51699829	-15.99599934	0.08406725526	-10.37599659	3.514435768	1.0
18	-82.07800293	-67.51699829	-15.99599934	0.06427394599	-10.36209774	3.536607504	1.0
19	-82.07800293	-67.51699829	-15.99599934	0.04064953327	-10.35247421	3.555334568	1.0
[RightLeg]
16	0	-443.7049866	2.861999989	7.586155415	-9.297793388	-4.471532345	1.0
17	0	-443.7049866	2.861999989	7.573931694	-9.30136013	-4.47424984	1.0
18	0	-443.7049866	2.861999989	7.578899384	-9.301175117	-4.477109432	1.0
19	0	-443.7049866	2.861999989	7.585774422	-9.301760674	-4.476441383	1.0
[RightFoot]
16	0	-444.2770081	-29.83799934	-3.555771589	-1.064656258	3.253571749	1.0
17	0	-444.2770081	-29.83799934	-3.551885128	-1.056178331	3.250421524	1.0
18	0	-444.2770081	-29.83799934	-3.557825089	-1.057572722	3.247384787	1.0
19	0	-444.2770081	-29.83799934	-3.565950871	-1.064007759	3.243032455	1.0
[RightToeBase]
16	0	-87.28699493	107.1060028	-7.178550243	-1.209964375e-05	6.909593964e-08	1.0
17	0	-87.28699493	107.1060028	-7.17439127	9.766560652e-06	1.014283271e-06	1.0
18	0	-87.28699493	107.1060028	-7.17539835	-1.573060445e-06	6.916188227e-07	1.0
19	0	-87.28699493	107.1060028	-7.175127983	-9.773461898e-06	-8.104546367e-08	1.0
[EndOfFile]
